# xmcd
#
# Track frame offsets: 
#        150
#        54594
#        90594
#        145447
#        170416
#        195794
#        230621
#        276424
#        296901
#
# Disc length: 4536 seconds
#
# Revision: 2
# Processed by: cddbd v1.5.2PL0 Copyright (c) Steve Scherf et al.
# Submitted via: ExactAudioCopy v0.95b4
#
DISCID=8511b609
DTITLE=Various Artist - Club Jazz Vol. 3 - CD 01
DYEAR=2001
DGENRE=Jazz
TTITLE0=Rumsey's, Howard Lighthouse All-Stars - Four others
TTITLE1=Baker, Chet And The Lighthouse All-Stars - Loaded
TTITLE2=Monk, Thelonious Quartet Plus Two - 'round midnight
TTITLE3=Timmons, Bobby Trio, The - Softly as in mornig sunrise
TTITLE4=Garland, Red - A froggy day
TTITLE5=Jackson, Milt Quintet - Gerri's blues
TTITLE6=Manne, Shelly and His Men - Theme: A gem from Tiffany
TTITLE7=Rumsey's, Howard Lighthouse All-Stars - Creme de menthe
TTITLE8=Montgomery, Wes - Cariba
EXTD=
EXTT0=
EXTT1=
EXTT2=
EXTT3=
EXTT4=
EXTT5=
EXTT6=
EXTT7=
EXTT8=
PLAYORDER=
